<?xml version="1.0" encoding="iso-8859-1"?>
<!-- Generator: Adobe Illustrator 19.0.0, SVG Export Plug-In . SVG Version: 6.00 Build 0)  -->
<svg version="1.1" id="Layer_1" xmlns="http://www.w3.org/2000/svg" xmlns:xlink="http://www.w3.org/1999/xlink" x="0px" y="0px"
	 viewBox="0 0 512 512" style="enable-background:new 0 0 512 512;" xml:space="preserve">
<g>
	<g>
		<circle cx="215.21" cy="191.34" r="9.999"/>
	</g>
</g>
<g>
	<g>
		<circle cx="292.06" cy="191.34" r="9.999"/>
	</g>
</g>
<g>
	<g>
		<path d="M414.637,359.349c-18.115-4.614-36.63-8.466-55.104-11.487l-19.98-30.213c-1.716-2.595-4.542-4.243-7.646-4.459
			c-3.098-0.22-6.131,1.024-8.19,3.356l-67.929,76.914l-67.695-72.352c-2.012-2.15-4.861-3.293-7.809-3.155
			c-2.94,0.149-5.666,1.586-7.449,3.929l-19.7,25.868c-13.691,2.224-27.405,4.902-40.968,8.016v-195.2
			C112.166,83.057,175.223,20,252.731,20s140.565,63.057,140.565,140.565v129.387c0,5.523,4.477,10,10,10s10-4.477,10-10V160.565
			C413.296,72.029,341.267,0,252.73,0C164.195,0,92.166,72.029,92.166,160.565v200.256c-38.996,12.159-65.83,48.372-65.83,89.739
			v22.785c0,21.314,17.341,38.655,38.655,38.655h382.018c21.314,0,38.655-17.341,38.655-38.655v-22.781
			C485.664,407.51,456.457,370.001,414.637,359.349z M330.068,339.566l14.078,21.288l-35.329,70.166l-37.683-24.726L330.068,339.566
			z M181.574,343.415l58.889,62.94l-38.486,24.48l-31.783-72.477L181.574,343.415z M213.195,492H64.991
			c-10.286,0-18.655-8.369-18.655-18.655V450.56c0-33.872,22.821-63.362,55.497-71.714c16.703-4.269,33.754-7.876,50.792-10.751
			l35.719,81.453c1.172,2.673,3.454,4.701,6.246,5.55c0.954,0.291,1.935,0.434,2.912,0.434c1.881,0,3.746-0.531,5.367-1.562
			l18.567-11.81L213.195,492z M233.467,492.001V492l10.624-64.249l11.825-7.521l12.386,8.127l14.3,63.644H233.467z M465.664,473.345
			c0,10.287-8.369,18.655-18.655,18.655H303.1l-10.755-47.868l14.876,9.761c2.382,1.565,5.321,2.038,8.074,1.298
			c2.753-0.738,5.062-2.616,6.343-5.162l40.967-81.366c15.804,2.752,31.601,6.12,47.095,10.066
			c32.951,8.394,55.964,37.933,55.964,71.834V473.345z"/>
	</g>
</g>
<g>
	<g>
		<path d="M336.548,130.724h-46.663c-10.423,0-20.381-4.977-26.639-13.313c-1.833-2.443-4.683-3.914-7.736-3.994
			c-3.038-0.089-5.976,1.24-7.935,3.584c-7.288,8.721-17.985,13.723-29.35,13.723h-44.098c-17.64,0-31.99,14.351-31.99,31.99v51.514
			c0,61.632,50.142,111.774,111.774,111.774s111.773-50.142,111.773-111.774V159.86
			C365.684,143.794,352.614,130.724,336.548,130.724z M345.685,214.228c0,50.604-41.169,91.774-91.773,91.774
			s-91.773-41.169-91.773-91.774v-51.514c0-6.611,5.379-11.99,11.99-11.99h44.098c13.536,0,26.451-4.66,36.746-13.044
			c9.607,8.299,22.039,13.044,34.914,13.044h46.664c5.035,0,9.134,4.099,9.134,9.136V214.228z"/>
	</g>
</g>
<g>
	<g>
		<path d="M283.667,247.665c-3.905-3.906-10.238-3.906-14.144,0c-3.687,3.687-8.589,5.718-13.803,5.718
			c-5.477,0-10.736-2.323-14.43-6.373c-3.722-4.081-10.047-4.372-14.127-0.65c-4.081,3.722-4.372,10.046-0.65,14.127
			c7.475,8.196,18.12,12.896,29.208,12.896c10.557,0,20.481-4.111,27.946-11.575C287.572,257.903,287.572,251.571,283.667,247.665z"
			/>
	</g>
</g>
<g>
	<g>
		<circle cx="403.3" cy="327.94" r="10"/>
	</g>
</g>
<g>
</g>
<g>
</g>
<g>
</g>
<g>
</g>
<g>
</g>
<g>
</g>
<g>
</g>
<g>
</g>
<g>
</g>
<g>
</g>
<g>
</g>
<g>
</g>
<g>
</g>
<g>
</g>
<g>
</g>
</svg>
